<?xml version="1.0" encoding="UTF-8"?>
<svg width="24px" height="24px" viewBox="0 0 24 24" version="1.1" xmlns="http://www.w3.org/2000/svg" xmlns:xlink="http://www.w3.org/1999/xlink">
    
    <defs>
        <circle id="path-1" cx="12" cy="12" r="12"></circle>
    </defs>
    <g id="Icon" stroke="none" stroke-width="1" fill="none" fill-rule="evenodd">
        <mask id="mask-2" fill="white">
            <use xlink:href="#path-1"></use>
        </mask>
        <use id="Oval" fill="#273674" xlink:href="#path-1"></use>
        <g mask="url(#mask-2)">
            <g transform="translate(3.000000, 3.000000)" id="Group">
                <g transform="translate(9.000000, 8.500000) scale(-1, 1) rotate(-180.000000) translate(-9.000000, -8.500000) ">
                    <path d="M5.14935135,13.1508656 C5.09113514,15.217311 6.76792793,16.938329 8.89456757,16.9949053 C11.0212072,17.0514727 12.7924234,15.4221689 12.8506396,13.3557585 C12.8525586,13.2874784 12.8525586,13.2191807 12.8506396,13.1508744 C14.8551622,13.8433486 17.0578739,12.8257384 17.7705315,10.8779691 C18.4831892,8.93019104 17.4358919,6.78988929 15.4313423,6.09741504 C15.364991,6.07447992 15.298009,6.05334809 15.2304414,6.03399331 C16.5275856,4.39549794 16.2121441,2.04547992 14.5258829,0.785063852 C12.8396216,-0.475352214 10.4211261,-0.16884449 9.12398198,1.46965088 C9.0810991,1.52381977 9.03974775,1.57911792 9,1.63545778 C7.7970991,-0.0695669413 5.39948649,-0.504257467 3.64474775,0.664575695 C1.89002703,1.83340886 1.44266667,4.16310917 2.64554955,5.86813388 C2.68531532,5.92450875 2.72665766,5.9798069 2.76954955,6.0339758 C0.728954955,6.61861998 -0.437504505,8.69995572 0.164189189,10.6827405 C0.765882883,12.6655252 2.90787387,13.798949 4.94845045,13.2143136 C5.01600901,13.1949588 5.08300901,13.1738007 5.14935135,13.1508656 Z" id="Path" fill="#8BD8BD" fill-rule="nonzero"></path>
                </g>
            </g>
        </g>
    </g>
</svg>