<?xml version="1.0" encoding="UTF-8"?>
<svg width="24px" height="24px" viewBox="0 0 24 24" version="1.1" xmlns="http://www.w3.org/2000/svg" xmlns:xlink="http://www.w3.org/1999/xlink">
    <!-- Generator: Sketch 54.1 (76490) - https://sketchapp.com -->
    <title>Iconvector</title>
    <desc>Created with Sketch.</desc>
    <defs>
        <circle id="path-1" cx="12" cy="12" r="12"></circle>
    </defs>
    <g id="Icon" stroke="none" stroke-width="1" fill="none" fill-rule="evenodd">
        <mask id="mask-2" fill="white">
            <use xlink:href="#path-1"></use>
        </mask>
        <use id="Oval" fill="#243665" xlink:href="#path-1"></use>
        <g id="biohazard_symbol" mask="url(#mask-2)" fill="#FF4136" fill-rule="nonzero">
            <g transform="translate(3.000000, 2.636364)" id="Shape">
                <path d="M8.75604978,0.382905686 C8.75402978,0.383155686 8.75232978,0.385474686 8.75031978,0.385763686 C8.75799978,0.385293686 8.76554778,0.383351686 8.77323678,0.382905686 C8.77133678,0.382925486 8.76937678,0.382817186 8.76749678,0.382905686 C8.76332678,0.383095686 8.76008678,0.382395686 8.75604678,0.382905686 L8.75604978,0.382905686 Z M9.28144654,0.385796048 C9.29671354,0.386917048 9.31201754,0.387448048 9.32725354,0.388660048 C9.31226354,0.387750048 9.29647354,0.386638048 9.28144654,0.385796048 Z M9.29169032,0.363636364 C11.2664359,0.520980825 12.8213611,2.18060352 12.8213611,4.20049553 C12.8213611,6.25713418 11.2075286,7.9345464 9.18170722,8.0388308 L9.18170722,8.8267867 C9.73477678,8.9144437 10.1583463,9.39594412 10.1583463,9.97490711 C10.1583463,10.1166074 10.1329003,10.2521164 10.086491,10.3777027 L10.8050382,10.7937307 C11.9154807,9.11217077 14.1558448,8.5634799 15.9213672,9.5853367 C17.6826893,10.6047648 18.3330361,12.8163611 17.4449737,14.6188313 C18.663769,12.240713 17.8162376,9.29315595 15.481444,7.9418093 C14.8972755,7.60370307 14.2748588,7.3977216 13.6454881,7.31262317 C13.8863976,6.72380277 14.0194225,6.079048 14.0194225,5.40300837 C14.0194225,2.72000009 11.9281824,0.523585663 9.29169032,0.363636364 L9.29169032,0.363636364 Z M8.64793484,0.36657644 C6.02461926,0.540275193 3.94659787,2.72948612 3.94659787,5.40300786 C3.94659787,6.05980092 4.07181753,6.68750417 4.30000486,7.26263725 C3.68936232,7.35226029 3.08402758,7.55619819 2.51684213,7.88447473 C0.197679545,9.22677317 -0.65187362,12.1433208 0.531316521,14.5129886 C-0.322955061,12.7191512 0.332169499,10.537218 2.07838354,9.52653312 C3.85506735,8.49821852 6.11078153,9.06064139 7.2137748,10.7672685 L7.90739483,10.3659414 C7.86380304,10.2437783 7.84140712,10.1120294 7.84140712,9.97490711 C7.84140712,9.420524 8.22912096,8.95684529 8.74765165,8.84148451 L8.74765165,8.03736487 C6.73976603,7.91407626 5.1461312,6.24421704 5.1461312,4.20049553 C5.1461312,2.18984509 6.68607338,0.536818883 8.64793484,0.36657644 Z M8.87229715,5.20014002 C7.85885428,5.22351121 6.92458437,5.56938015 6.15795761,6.13216347 C6.21920195,6.22301933 6.28500732,6.31095 6.35445537,6.39530339 C6.42390957,6.47965627 6.49733732,6.56058848 6.57442004,6.63786227 C6.65150173,6.71513607 6.73223431,6.78875197 6.81638214,6.85837314 C6.87824777,6.90956159 6.94453101,6.95564932 7.00994763,7.00243894 C7.57583776,6.62996627 8.25350673,6.41147792 8.98374716,6.41147792 C9.71397991,6.41147484 10.3901876,6.62996678 10.9560772,7.00243894 C11.0214944,6.95564932 11.0877745,6.90956159 11.1496432,6.85837314 C11.2337895,6.78875197 11.3145206,6.71513658 11.3916002,6.63786227 C11.468688,6.56058796 11.5421158,6.47965576 11.6115669,6.39530339 C11.6810155,6.31095 11.7468178,6.22301933 11.8080662,6.13216347 C11.0137311,5.5490394 10.0395469,5.20014002 8.98374716,5.20014002 C8.95899825,5.20014002 8.93361371,5.19978059 8.90895545,5.20014002 C8.89691955,5.2003454 8.88431359,5.19988329 8.87229715,5.20014002 L8.87229715,5.20014002 Z M4.25308232,9.43980292 C4.14649809,10.4209859 4.33228191,11.4412541 4.86017898,12.3578766 C5.38807897,13.274496 6.17648805,13.9473396 7.07740071,14.3453996 C7.12526875,14.2467997 7.16829867,14.1450395 7.2064459,14.0425671 C7.24459621,13.9400968 7.27794936,13.8364763 7.30615964,13.7309169 C7.33437811,13.6253571 7.35847347,13.5183041 7.37654858,13.4104419 C7.38984241,13.3311343 7.39670266,13.2510057 7.40441723,13.1708195 C6.7996966,12.8657627 6.27231992,12.3861878 5.90720175,11.752209 C5.54208205,11.1182323 5.39178823,10.4216355 5.43061463,9.74410648 C5.35749112,9.71070586 5.28434097,9.676667 5.20918356,9.64855091 C5.10696743,9.61031349 5.00360282,9.57687281 4.8983047,9.54858729 C4.79300658,9.52030073 4.6862226,9.49761398 4.57862681,9.47949344 C4.47103204,9.46137443 4.36219367,9.44754385 4.25308232,9.43980343 L4.25308232,9.43980292 Z M13.7466708,9.49713287 C13.6375543,9.5048815 13.5287226,9.51870695 13.4211263,9.53682595 C13.31353,9.55495061 13.2067414,9.57763274 13.1014433,9.60592135 C12.9961503,9.6342079 12.8913187,9.66764241 12.7890989,9.705886 C12.713943,9.73399798 12.6422613,9.76950893 12.5691383,9.80290596 C12.6079611,10.4804339 12.4576678,11.1770385 12.0925491,11.8110147 C11.7274325,12.4449857 11.2000538,12.9230937 10.5953408,13.2281521 C10.6030477,13.3083362 10.6099085,13.3884674 10.6232013,13.4677719 C10.6412759,13.5756361 10.6639048,13.6826866 10.6921213,13.7882495 C10.7203367,13.8938062 10.7536944,13.9989014 10.7918401,14.1013697 C10.8299827,14.2038472 10.8730203,14.3041302 10.9208833,14.4027342 C11.8217985,14.0046727 12.6102071,13.3332996 13.1381046,12.4166802 C13.6660104,11.5000572 13.8532514,10.4783169 13.7466708,9.49713287 Z M8.12735642,10.7378662 L7.4293408,11.143606 C8.32678133,12.9484453 7.68152054,15.1669995 5.91600421,16.1888599 C4.15917525,17.2056833 1.93030038,16.6705935 0.814332935,15.0084002 C2.26245009,17.245305 5.22375992,17.9785819 7.55398783,16.629875 C8.11846484,16.303163 8.59463658,15.8819824 8.97641314,15.3994381 C9.3656866,15.9066932 9.85836205,16.3472323 10.445763,16.6872101 C12.7786129,18.037425 15.743487,17.30117 17.1898197,15.0583825 C16.0759194,16.7277683 13.843801,17.2678233 12.0837538,16.2491325 C10.3070723,15.2208123 9.66518685,12.9809797 10.5880068,11.1700677 L9.86213226,10.7496286 C9.64999792,10.9864079 9.3420942,11.1362558 8.99987646,11.1362558 C8.65203542,11.1362558 8.33976478,10.9814505 8.12735642,10.7378662 L8.12735642,10.7378662 Z"></path>
            </g>
        </g>
    </g>
</svg>