<?xml version="1.0" encoding="UTF-8"?>
<svg version="1.1" viewBox="0 0 24 24" xmlns="http://www.w3.org/2000/svg">
<g fill="none" fill-rule="evenodd">
<g transform="translate(1 2)" fill="#FF4136" fill-rule="nonzero">
<g transform="translate(11 10.5) scale(-1 1) rotate(180) translate(-11 -10.5)">
<path d="m6.2937 16.245c-0.071153 2.5527 1.9783 4.6786 4.5775 4.7485 2.5992 0.069877 4.764-1.9428 4.8352-4.4954 0.0023454-0.084346 0.0023454-0.16871 0-0.25309 2.45 0.85541 5.1422-0.40164 6.0132-2.8077 0.87103-2.4061-0.409-5.05-2.859-5.9054-0.081096-0.028332-0.16296-0.054436-0.24555-0.078344 1.5854-2.024 1.1999-4.927-0.86113-6.484-2.061-1.557-5.0169-1.1784-6.6023 0.84567-0.052412 0.066915-0.10295 0.13522-0.15153 0.20482-1.4702-2.1062-4.4006-2.6432-6.5453-1.1993-2.1447 1.4439-2.6914 4.3217-1.2212 6.4279 0.048603 0.06964 0.099132 0.13795 0.15156 0.20486-2.4941 0.72221-3.9197 3.2933-3.1843 5.7426 0.7354 2.4493 3.3534 3.8494 5.8474 3.1272 0.082572-0.023909 0.16446-0.050045 0.24555-0.078377z"/>
</g>
</g>
</g>
</svg>
